<?xml version="1.0" encoding="utf-8" standalone="no"?>
<!DOCTYPE svg PUBLIC "-//W3C//DTD SVG 1.1//EN"
  "http://www.w3.org/Graphics/SVG/1.1/DTD/svg11.dtd">
<svg xmlns:xlink="http://www.w3.org/1999/xlink" width="493.546194pt" height="559.799688pt" viewBox="0 0 493.546194 559.799688" xmlns="http://www.w3.org/2000/svg" version="1.1">
 <metadata>
  <rdf:RDF xmlns:dc="http://purl.org/dc/elements/1.1/" xmlns:cc="http://creativecommons.org/ns#" xmlns:rdf="http://www.w3.org/1999/02/22-rdf-syntax-ns#">
   <cc:Work>
    <dc:type rdf:resource="http://purl.org/dc/dcmitype/StillImage"/>
    <dc:date>2026-02-26T07:44:55.101871</dc:date>
    <dc:format>image/svg+xml</dc:format>
    <dc:creator>
     <cc:Agent>
      <dc:title>Matplotlib v3.10.8, https://matplotlib.org/</dc:title>
     </cc:Agent>
    </dc:creator>
   </cc:Work>
  </rdf:RDF>
 </metadata>
 <defs>
  <style type="text/css">*{stroke-linejoin: round; stroke-linecap: butt}</style>
 </defs>
 <g id="figure_1">
  <g id="patch_1">
   <path d="M 0 559.799688
L 493.546194 559.799688
L 493.546194 -0
L 0 -0
z
" style="fill: #ffffff"/>
  </g>
  <g id="axes_1">
   <g id="patch_2">
    <path d="M 87.042248 518.98
L 280.332702 518.98
L 280.332702 75.17625
L 87.042248 75.17625
z
" style="fill: #ffffff"/>
   </g>
   <g id="patch_3">
    <path d="M 87.042248 498.807102
L 280.332702 498.807102
L 280.332702 364.321117
L 87.042248 364.321117
z
" clip-path="url(#pbe88bef69b)" style="fill: #f7f7f7; stroke: #f7f7f7; stroke-linejoin: miter"/>
   </g>
   <g id="patch_4">
    <path d="M 87.042248 229.835133
L 280.332702 229.835133
L 280.332702 95.349148
L 87.042248 95.349148
z
" clip-path="url(#pbe88bef69b)" style="fill: #f7f7f7; stroke: #f7f7f7; stroke-linejoin: miter"/>
   </g>
   <g id="matplotlib.axis_1">
    <g id="xtick_1">
     <g id="line2d_1">
      <path d="M 87.042248 518.98
L 87.042248 75.17625
" clip-path="url(#pbe88bef69b)" style="fill: none; stroke-dasharray: 3.7,1.6; stroke-dashoffset: 0; stroke: #cccccc; stroke-opacity: 0.3"/>
     </g>
     <g id="text_1">
      <!-- 0 -->
      <g style="fill: #262626" transform="translate(83.983732 536.353594) scale(0.11 -0.11)">
       <defs>
        <path id="ArialMT-30" d="M 266 2259
Q 266 3072 433 3567
Q 600 4063 929 4331
Q 1259 4600 1759 4600
Q 2128 4600 2406 4451
Q 2684 4303 2865 4023
Q 3047 3744 3150 3342
Q 3253 2941 3253 2259
Q 3253 1453 3087 958
Q 2922 463 2592 192
Q 2263 -78 1759 -78
Q 1097 -78 719 397
Q 266 969 266 2259
z
M 844 2259
Q 844 1131 1108 757
Q 1372 384 1759 384
Q 2147 384 2411 759
Q 2675 1134 2675 2259
Q 2675 3391 2411 3762
Q 2147 4134 1753 4134
Q 1366 4134 1134 3806
Q 844 3388 844 2259
z
" transform="scale(0.015625)"/>
       </defs>
       <use xlink:href="#ArialMT-30"/>
      </g>
     </g>
    </g>
    <g id="xtick_2">
     <g id="line2d_2">
      <path d="M 135.364861 518.98
L 135.364861 75.17625
" clip-path="url(#pbe88bef69b)" style="fill: none; stroke-dasharray: 3.7,1.6; stroke-dashoffset: 0; stroke: #cccccc; stroke-opacity: 0.3"/>
     </g>
     <g id="text_2">
      <!-- 0.25 -->
      <g style="fill: #262626" transform="translate(124.661345 536.353594) scale(0.11 -0.11)">
       <defs>
        <path id="ArialMT-2e" d="M 581 0
L 581 641
L 1222 641
L 1222 0
L 581 0
z
" transform="scale(0.015625)"/>
        <path id="ArialMT-32" d="M 3222 541
L 3222 0
L 194 0
Q 188 203 259 391
Q 375 700 629 1000
Q 884 1300 1366 1694
Q 2113 2306 2375 2664
Q 2638 3022 2638 3341
Q 2638 3675 2398 3904
Q 2159 4134 1775 4134
Q 1369 4134 1125 3890
Q 881 3647 878 3216
L 300 3275
Q 359 3922 746 4261
Q 1134 4600 1788 4600
Q 2447 4600 2831 4234
Q 3216 3869 3216 3328
Q 3216 3053 3103 2787
Q 2991 2522 2730 2228
Q 2469 1934 1863 1422
Q 1356 997 1212 845
Q 1069 694 975 541
L 3222 541
z
" transform="scale(0.015625)"/>
        <path id="ArialMT-35" d="M 266 1200
L 856 1250
Q 922 819 1161 601
Q 1400 384 1738 384
Q 2144 384 2425 690
Q 2706 997 2706 1503
Q 2706 1984 2436 2262
Q 2166 2541 1728 2541
Q 1456 2541 1237 2417
Q 1019 2294 894 2097
L 366 2166
L 809 4519
L 3088 4519
L 3088 3981
L 1259 3981
L 1013 2750
Q 1425 3038 1878 3038
Q 2478 3038 2890 2622
Q 3303 2206 3303 1553
Q 3303 931 2941 478
Q 2500 -78 1738 -78
Q 1113 -78 717 272
Q 322 622 266 1200
z
" transform="scale(0.015625)"/>
       </defs>
       <use xlink:href="#ArialMT-30"/>
       <use xlink:href="#ArialMT-2e" transform="translate(55.615234 0)"/>
       <use xlink:href="#ArialMT-32" transform="translate(83.398438 0)"/>
       <use xlink:href="#ArialMT-35" transform="translate(139.013672 0)"/>
      </g>
     </g>
    </g>
    <g id="xtick_3">
     <g id="line2d_3">
      <path d="M 183.687475 518.98
L 183.687475 75.17625
" clip-path="url(#pbe88bef69b)" style="fill: none; stroke-dasharray: 3.7,1.6; stroke-dashoffset: 0; stroke: #cccccc; stroke-opacity: 0.3"/>
     </g>
     <g id="text_3">
      <!-- 0.5 -->
      <g style="fill: #262626" transform="translate(176.042475 536.353594) scale(0.11 -0.11)">
       <use xlink:href="#ArialMT-30"/>
       <use xlink:href="#ArialMT-2e" transform="translate(55.615234 0)"/>
       <use xlink:href="#ArialMT-35" transform="translate(83.398438 0)"/>
      </g>
     </g>
    </g>
    <g id="xtick_4">
     <g id="line2d_4">
      <path d="M 232.010088 518.98
L 232.010088 75.17625
" clip-path="url(#pbe88bef69b)" style="fill: none; stroke-dasharray: 3.7,1.6; stroke-dashoffset: 0; stroke: #cccccc; stroke-opacity: 0.3"/>
     </g>
     <g id="text_4">
      <!-- 0.75 -->
      <g style="fill: #262626" transform="translate(221.306573 536.353594) scale(0.11 -0.11)">
       <defs>
        <path id="ArialMT-37" d="M 303 3981
L 303 4522
L 3269 4522
L 3269 4084
Q 2831 3619 2401 2847
Q 1972 2075 1738 1259
Q 1569 684 1522 0
L 944 0
Q 953 541 1156 1306
Q 1359 2072 1739 2783
Q 2119 3494 2547 3981
L 303 3981
z
" transform="scale(0.015625)"/>
       </defs>
       <use xlink:href="#ArialMT-30"/>
       <use xlink:href="#ArialMT-2e" transform="translate(55.615234 0)"/>
       <use xlink:href="#ArialMT-37" transform="translate(83.398438 0)"/>
       <use xlink:href="#ArialMT-35" transform="translate(139.013672 0)"/>
      </g>
     </g>
    </g>
    <g id="xtick_5">
     <g id="line2d_5">
      <path d="M 280.332702 518.98
L 280.332702 75.17625
" clip-path="url(#pbe88bef69b)" style="fill: none; stroke-dasharray: 3.7,1.6; stroke-dashoffset: 0; stroke: #cccccc; stroke-opacity: 0.3"/>
     </g>
     <g id="text_5">
      <!-- 1 -->
      <g style="fill: #262626" transform="translate(277.274186 536.353594) scale(0.11 -0.11)">
       <defs>
        <path id="ArialMT-31" d="M 2384 0
L 1822 0
L 1822 3584
Q 1619 3391 1289 3197
Q 959 3003 697 2906
L 697 3450
Q 1169 3672 1522 3987
Q 1875 4303 2022 4600
L 2384 4600
L 2384 0
z
" transform="scale(0.015625)"/>
       </defs>
       <use xlink:href="#ArialMT-31"/>
      </g>
     </g>
    </g>
    <g id="text_6">
     <!-- Score -->
     <g style="fill: #262626" transform="translate(169.320443 550.413437) scale(0.11 -0.11)">
      <defs>
       <path id="ArialMT-53" d="M 288 1472
L 859 1522
Q 900 1178 1048 958
Q 1197 738 1509 602
Q 1822 466 2213 466
Q 2559 466 2825 569
Q 3091 672 3220 851
Q 3350 1031 3350 1244
Q 3350 1459 3225 1620
Q 3100 1781 2813 1891
Q 2628 1963 1997 2114
Q 1366 2266 1113 2400
Q 784 2572 623 2826
Q 463 3081 463 3397
Q 463 3744 659 4045
Q 856 4347 1234 4503
Q 1613 4659 2075 4659
Q 2584 4659 2973 4495
Q 3363 4331 3572 4012
Q 3781 3694 3797 3291
L 3216 3247
Q 3169 3681 2898 3903
Q 2628 4125 2100 4125
Q 1550 4125 1298 3923
Q 1047 3722 1047 3438
Q 1047 3191 1225 3031
Q 1400 2872 2139 2705
Q 2878 2538 3153 2413
Q 3553 2228 3743 1945
Q 3934 1663 3934 1294
Q 3934 928 3725 604
Q 3516 281 3123 101
Q 2731 -78 2241 -78
Q 1619 -78 1198 103
Q 778 284 539 648
Q 300 1013 288 1472
z
" transform="scale(0.015625)"/>
       <path id="ArialMT-63" d="M 2588 1216
L 3141 1144
Q 3050 572 2676 248
Q 2303 -75 1759 -75
Q 1078 -75 664 370
Q 250 816 250 1647
Q 250 2184 428 2587
Q 606 2991 970 3192
Q 1334 3394 1763 3394
Q 2303 3394 2647 3120
Q 2991 2847 3088 2344
L 2541 2259
Q 2463 2594 2264 2762
Q 2066 2931 1784 2931
Q 1359 2931 1093 2626
Q 828 2322 828 1663
Q 828 994 1084 691
Q 1341 388 1753 388
Q 2084 388 2306 591
Q 2528 794 2588 1216
z
" transform="scale(0.015625)"/>
       <path id="ArialMT-6f" d="M 213 1659
Q 213 2581 725 3025
Q 1153 3394 1769 3394
Q 2453 3394 2887 2945
Q 3322 2497 3322 1706
Q 3322 1066 3130 698
Q 2938 331 2570 128
Q 2203 -75 1769 -75
Q 1072 -75 642 372
Q 213 819 213 1659
z
M 791 1659
Q 791 1022 1069 705
Q 1347 388 1769 388
Q 2188 388 2466 706
Q 2744 1025 2744 1678
Q 2744 2294 2464 2611
Q 2184 2928 1769 2928
Q 1347 2928 1069 2612
Q 791 2297 791 1659
z
" transform="scale(0.015625)"/>
       <path id="ArialMT-72" d="M 416 0
L 416 3319
L 922 3319
L 922 2816
Q 1116 3169 1280 3281
Q 1444 3394 1641 3394
Q 1925 3394 2219 3213
L 2025 2691
Q 1819 2813 1613 2813
Q 1428 2813 1281 2702
Q 1134 2591 1072 2394
Q 978 2094 978 1738
L 978 0
L 416 0
z
" transform="scale(0.015625)"/>
       <path id="ArialMT-65" d="M 2694 1069
L 3275 997
Q 3138 488 2766 206
Q 2394 -75 1816 -75
Q 1088 -75 661 373
Q 234 822 234 1631
Q 234 2469 665 2931
Q 1097 3394 1784 3394
Q 2450 3394 2872 2941
Q 3294 2488 3294 1666
Q 3294 1616 3291 1516
L 816 1516
Q 847 969 1125 678
Q 1403 388 1819 388
Q 2128 388 2347 550
Q 2566 713 2694 1069
z
M 847 1978
L 2700 1978
Q 2663 2397 2488 2606
Q 2219 2931 1791 2931
Q 1403 2931 1139 2672
Q 875 2413 847 1978
z
" transform="scale(0.015625)"/>
      </defs>
      <use xlink:href="#ArialMT-53"/>
      <use xlink:href="#ArialMT-63" transform="translate(66.699219 0)"/>
      <use xlink:href="#ArialMT-6f" transform="translate(116.699219 0)"/>
      <use xlink:href="#ArialMT-72" transform="translate(172.314453 0)"/>
      <use xlink:href="#ArialMT-65" transform="translate(205.615234 0)"/>
     </g>
    </g>
   </g>
   <g id="matplotlib.axis_2"/>
   <g id="line2d_6">
    <path d="M 158.366425 387.183735
L 174.796114 387.183735
" clip-path="url(#pbe88bef69b)" style="fill: none; stroke: #000000; stroke-opacity: 0.2; stroke-linecap: round"/>
   </g>
   <g id="line2d_7">
    <path d="M 214.807238 446.357568
L 214.807238 446.357568
" clip-path="url(#pbe88bef69b)" style="fill: none; stroke: #000000; stroke-opacity: 0.2; stroke-linecap: round"/>
   </g>
   <g id="line2d_8">
    <path d="M 193.158707 475.944485
L 196.831225 475.944485
" clip-path="url(#pbe88bef69b)" style="fill: none; stroke: #000000; stroke-opacity: 0.2; stroke-linecap: round"/>
   </g>
   <g id="line2d_9">
    <path d="M 160.29933 416.770652
L 163.778558 416.770652
" clip-path="url(#pbe88bef69b)" style="fill: none; stroke: #000000; stroke-opacity: 0.2; stroke-linecap: round"/>
   </g>
   <g id="line2d_10">
    <path d="M 194.125159 252.69775
L 196.831225 252.69775
" clip-path="url(#pbe88bef69b)" style="fill: none; stroke: #000000; stroke-opacity: 0.2; stroke-linecap: round"/>
   </g>
   <g id="line2d_11">
    <path d="M 237.22893 311.871583
L 226.018084 311.871583
" clip-path="url(#pbe88bef69b)" style="fill: none; stroke: #000000; stroke-opacity: 0.2; stroke-linecap: round"/>
   </g>
   <g id="line2d_12">
    <path d="M 232.396669 341.4585
L 230.463765 341.4585
" clip-path="url(#pbe88bef69b)" style="fill: none; stroke: #000000; stroke-opacity: 0.2; stroke-linecap: round"/>
   </g>
   <g id="line2d_13">
    <path d="M 203.596391 282.284667
L 201.083615 282.284667
" clip-path="url(#pbe88bef69b)" style="fill: none; stroke: #000000; stroke-opacity: 0.2; stroke-linecap: round"/>
   </g>
   <g id="line2d_14">
    <path d="M 186.973412 118.211765
L 202.629939 118.211765
" clip-path="url(#pbe88bef69b)" style="fill: none; stroke: #000000; stroke-opacity: 0.2; stroke-linecap: round"/>
   </g>
   <g id="line2d_15">
    <path d="M 229.304022 177.385598
L 221.185823 177.385598
" clip-path="url(#pbe88bef69b)" style="fill: none; stroke: #000000; stroke-opacity: 0.2; stroke-linecap: round"/>
   </g>
   <g id="line2d_16">
    <path d="M 229.690603 206.972515
L 218.093175 206.972515
" clip-path="url(#pbe88bef69b)" style="fill: none; stroke: #000000; stroke-opacity: 0.2; stroke-linecap: round"/>
   </g>
   <g id="line2d_17">
    <path d="M 199.923873 147.798682
L 186.200251 147.798682
" clip-path="url(#pbe88bef69b)" style="fill: none; stroke: #000000; stroke-opacity: 0.2; stroke-linecap: round"/>
   </g>
   <g id="patch_5">
    <path d="M 87.042248 518.98
L 280.332702 518.98
" style="fill: none; stroke: #262626; stroke-width: 1.25; stroke-linejoin: miter; stroke-linecap: square"/>
   </g>
   <g id="text_7">
    <!-- Cooccurrence -->
    <g transform="translate(17.220938 478.633641) rotate(-90) scale(0.14 -0.14)">
     <defs>
      <path id="Arial-BoldMT-43" d="M 3397 1684
L 4294 1400
Q 4088 650 3608 286
Q 3128 -78 2391 -78
Q 1478 -78 890 545
Q 303 1169 303 2250
Q 303 3394 893 4026
Q 1484 4659 2447 4659
Q 3288 4659 3813 4163
Q 4125 3869 4281 3319
L 3366 3100
Q 3284 3456 3026 3662
Q 2769 3869 2400 3869
Q 1891 3869 1573 3503
Q 1256 3138 1256 2319
Q 1256 1450 1568 1081
Q 1881 713 2381 713
Q 2750 713 3015 947
Q 3281 1181 3397 1684
z
" transform="scale(0.015625)"/>
      <path id="Arial-BoldMT-6f" d="M 256 1706
Q 256 2144 472 2553
Q 688 2963 1083 3178
Q 1478 3394 1966 3394
Q 2719 3394 3200 2905
Q 3681 2416 3681 1669
Q 3681 916 3195 420
Q 2709 -75 1972 -75
Q 1516 -75 1102 131
Q 688 338 472 736
Q 256 1134 256 1706
z
M 1156 1659
Q 1156 1166 1390 903
Q 1625 641 1969 641
Q 2313 641 2545 903
Q 2778 1166 2778 1666
Q 2778 2153 2545 2415
Q 2313 2678 1969 2678
Q 1625 2678 1390 2415
Q 1156 2153 1156 1659
z
" transform="scale(0.015625)"/>
      <path id="Arial-BoldMT-63" d="M 3353 2338
L 2488 2181
Q 2444 2441 2289 2572
Q 2134 2703 1888 2703
Q 1559 2703 1364 2476
Q 1169 2250 1169 1719
Q 1169 1128 1367 884
Q 1566 641 1900 641
Q 2150 641 2309 783
Q 2469 925 2534 1272
L 3397 1125
Q 3263 531 2881 228
Q 2500 -75 1859 -75
Q 1131 -75 698 384
Q 266 844 266 1656
Q 266 2478 700 2936
Q 1134 3394 1875 3394
Q 2481 3394 2839 3133
Q 3197 2872 3353 2338
z
" transform="scale(0.015625)"/>
      <path id="Arial-BoldMT-75" d="M 2644 0
L 2644 497
Q 2463 231 2167 78
Q 1872 -75 1544 -75
Q 1209 -75 943 72
Q 678 219 559 484
Q 441 750 441 1219
L 441 3319
L 1319 3319
L 1319 1794
Q 1319 1094 1367 936
Q 1416 778 1544 686
Q 1672 594 1869 594
Q 2094 594 2272 717
Q 2450 841 2515 1023
Q 2581 1206 2581 1919
L 2581 3319
L 3459 3319
L 3459 0
L 2644 0
z
" transform="scale(0.015625)"/>
      <path id="Arial-BoldMT-72" d="M 1300 0
L 422 0
L 422 3319
L 1238 3319
L 1238 2847
Q 1447 3181 1614 3287
Q 1781 3394 1994 3394
Q 2294 3394 2572 3228
L 2300 2463
Q 2078 2606 1888 2606
Q 1703 2606 1575 2504
Q 1447 2403 1373 2137
Q 1300 1872 1300 1025
L 1300 0
z
" transform="scale(0.015625)"/>
      <path id="Arial-BoldMT-65" d="M 2381 1056
L 3256 909
Q 3088 428 2723 176
Q 2359 -75 1813 -75
Q 947 -75 531 491
Q 203 944 203 1634
Q 203 2459 634 2926
Q 1066 3394 1725 3394
Q 2466 3394 2894 2905
Q 3322 2416 3303 1406
L 1103 1406
Q 1113 1016 1316 798
Q 1519 581 1822 581
Q 2028 581 2168 693
Q 2309 806 2381 1056
z
M 2431 1944
Q 2422 2325 2234 2523
Q 2047 2722 1778 2722
Q 1491 2722 1303 2513
Q 1116 2303 1119 1944
L 2431 1944
z
" transform="scale(0.015625)"/>
      <path id="Arial-BoldMT-6e" d="M 3478 0
L 2600 0
L 2600 1694
Q 2600 2231 2544 2389
Q 2488 2547 2361 2634
Q 2234 2722 2056 2722
Q 1828 2722 1647 2597
Q 1466 2472 1398 2265
Q 1331 2059 1331 1503
L 1331 0
L 453 0
L 453 3319
L 1269 3319
L 1269 2831
Q 1703 3394 2363 3394
Q 2653 3394 2893 3289
Q 3134 3184 3257 3021
Q 3381 2859 3429 2653
Q 3478 2447 3478 2063
L 3478 0
z
" transform="scale(0.015625)"/>
     </defs>
     <use xlink:href="#Arial-BoldMT-43"/>
     <use xlink:href="#Arial-BoldMT-6f" transform="translate(72.216797 0)"/>
     <use xlink:href="#Arial-BoldMT-6f" transform="translate(133.300781 0)"/>
     <use xlink:href="#Arial-BoldMT-63" transform="translate(194.384766 0)"/>
     <use xlink:href="#Arial-BoldMT-63" transform="translate(250 0)"/>
     <use xlink:href="#Arial-BoldMT-75" transform="translate(305.615234 0)"/>
     <use xlink:href="#Arial-BoldMT-72" transform="translate(366.699219 0)"/>
     <use xlink:href="#Arial-BoldMT-72" transform="translate(405.615234 0)"/>
     <use xlink:href="#Arial-BoldMT-65" transform="translate(444.53125 0)"/>
     <use xlink:href="#Arial-BoldMT-6e" transform="translate(500.146484 0)"/>
     <use xlink:href="#Arial-BoldMT-63" transform="translate(561.230469 0)"/>
     <use xlink:href="#Arial-BoldMT-65" transform="translate(616.845703 0)"/>
    </g>
   </g>
   <g id="text_8">
    <!-- Moscot -->
    <g transform="translate(17.220938 321.575938) rotate(-90) scale(0.14 -0.14)">
     <defs>
      <path id="Arial-BoldMT-4d" d="M 453 0
L 453 4581
L 1838 4581
L 2669 1456
L 3491 4581
L 4878 4581
L 4878 0
L 4019 0
L 4019 3606
L 3109 0
L 2219 0
L 1313 3606
L 1313 0
L 453 0
z
" transform="scale(0.015625)"/>
      <path id="Arial-BoldMT-73" d="M 150 947
L 1031 1081
Q 1088 825 1259 692
Q 1431 559 1741 559
Q 2081 559 2253 684
Q 2369 772 2369 919
Q 2369 1019 2306 1084
Q 2241 1147 2013 1200
Q 950 1434 666 1628
Q 272 1897 272 2375
Q 272 2806 612 3100
Q 953 3394 1669 3394
Q 2350 3394 2681 3172
Q 3013 2950 3138 2516
L 2309 2363
Q 2256 2556 2107 2659
Q 1959 2763 1684 2763
Q 1338 2763 1188 2666
Q 1088 2597 1088 2488
Q 1088 2394 1175 2328
Q 1294 2241 1995 2081
Q 2697 1922 2975 1691
Q 3250 1456 3250 1038
Q 3250 581 2869 253
Q 2488 -75 1741 -75
Q 1063 -75 667 200
Q 272 475 150 947
z
" transform="scale(0.015625)"/>
      <path id="Arial-BoldMT-74" d="M 1981 3319
L 1981 2619
L 1381 2619
L 1381 1281
Q 1381 875 1398 808
Q 1416 741 1477 697
Q 1538 653 1625 653
Q 1747 653 1978 738
L 2053 56
Q 1747 -75 1359 -75
Q 1122 -75 931 4
Q 741 84 652 211
Q 563 338 528 553
Q 500 706 500 1172
L 500 2619
L 97 2619
L 97 3319
L 500 3319
L 500 3978
L 1381 4491
L 1381 3319
L 1981 3319
z
" transform="scale(0.015625)"/>
     </defs>
     <use xlink:href="#Arial-BoldMT-4d"/>
     <use xlink:href="#Arial-BoldMT-6f" transform="translate(83.300781 0)"/>
     <use xlink:href="#Arial-BoldMT-73" transform="translate(144.384766 0)"/>
     <use xlink:href="#Arial-BoldMT-63" transform="translate(200 0)"/>
     <use xlink:href="#Arial-BoldMT-6f" transform="translate(255.615234 0)"/>
     <use xlink:href="#Arial-BoldMT-74" transform="translate(316.699219 0)"/>
    </g>
   </g>
   <g id="text_9">
    <!-- scNODE -->
    <g transform="translate(17.220938 190.601984) rotate(-90) scale(0.14 -0.14)">
     <defs>
      <path id="Arial-BoldMT-4e" d="M 475 0
L 475 4581
L 1375 4581
L 3250 1522
L 3250 4581
L 4109 4581
L 4109 0
L 3181 0
L 1334 2988
L 1334 0
L 475 0
z
" transform="scale(0.015625)"/>
      <path id="Arial-BoldMT-4f" d="M 278 2263
Q 278 2963 488 3438
Q 644 3788 914 4066
Q 1184 4344 1506 4478
Q 1934 4659 2494 4659
Q 3506 4659 4114 4031
Q 4722 3403 4722 2284
Q 4722 1175 4119 548
Q 3516 -78 2506 -78
Q 1484 -78 881 545
Q 278 1169 278 2263
z
M 1231 2294
Q 1231 1516 1590 1114
Q 1950 713 2503 713
Q 3056 713 3411 1111
Q 3766 1509 3766 2306
Q 3766 3094 3420 3481
Q 3075 3869 2503 3869
Q 1931 3869 1581 3476
Q 1231 3084 1231 2294
z
" transform="scale(0.015625)"/>
      <path id="Arial-BoldMT-44" d="M 463 4581
L 2153 4581
Q 2725 4581 3025 4494
Q 3428 4375 3715 4072
Q 4003 3769 4153 3330
Q 4303 2891 4303 2247
Q 4303 1681 4163 1272
Q 3991 772 3672 463
Q 3431 228 3022 97
Q 2716 0 2203 0
L 463 0
L 463 4581
z
M 1388 3806
L 1388 772
L 2078 772
Q 2466 772 2638 816
Q 2863 872 3011 1006
Q 3159 1141 3253 1448
Q 3347 1756 3347 2288
Q 3347 2819 3253 3103
Q 3159 3388 2990 3547
Q 2822 3706 2563 3763
Q 2369 3806 1803 3806
L 1388 3806
z
" transform="scale(0.015625)"/>
      <path id="Arial-BoldMT-45" d="M 466 0
L 466 4581
L 3863 4581
L 3863 3806
L 1391 3806
L 1391 2791
L 3691 2791
L 3691 2019
L 1391 2019
L 1391 772
L 3950 772
L 3950 0
L 466 0
z
" transform="scale(0.015625)"/>
     </defs>
     <use xlink:href="#Arial-BoldMT-73"/>
     <use xlink:href="#Arial-BoldMT-63" transform="translate(55.615234 0)"/>
     <use xlink:href="#Arial-BoldMT-4e" transform="translate(111.230469 0)"/>
     <use xlink:href="#Arial-BoldMT-4f" transform="translate(183.447266 0)"/>
     <use xlink:href="#Arial-BoldMT-44" transform="translate(261.230469 0)"/>
     <use xlink:href="#Arial-BoldMT-45" transform="translate(333.447266 0)"/>
    </g>
   </g>
   <g id="PathCollection_1">
    <defs>
     <path id="m89c04bf2d9" d="M 0 3.872983
C 1.027127 3.872983 2.012324 3.464901 2.738613 2.738613
C 3.464901 2.012324 3.872983 1.027127 3.872983 0
C 3.872983 -1.027127 3.464901 -2.012324 2.738613 -2.738613
C 2.012324 -3.464901 1.027127 -3.872983 0 -3.872983
C -1.027127 -3.872983 -2.012324 -3.464901 -2.738613 -2.738613
C -3.464901 -2.012324 -3.872983 -1.027127 -3.872983 0
C -3.872983 1.027127 -3.464901 2.012324 -2.738613 2.738613
C -2.012324 3.464901 -1.027127 3.872983 0 3.872983
z
" style="stroke: #ffffff; stroke-width: 0.8"/>
    </defs>
    <g clip-path="url(#pbe88bef69b)">
     <use xlink:href="#m89c04bf2d9" x="158.366425" y="387.183735" style="fill: #1f77b4; stroke: #ffffff; stroke-width: 0.8"/>
    </g>
   </g>
   <g id="text_10">
    <!-- AUROC -->
    <g style="fill: #444444" transform="translate(48.740878 389.510375) scale(0.09 -0.09)">
     <defs>
      <path id="ArialMT-41" d="M -9 0
L 1750 4581
L 2403 4581
L 4278 0
L 3588 0
L 3053 1388
L 1138 1388
L 634 0
L -9 0
z
M 1313 1881
L 2866 1881
L 2388 3150
Q 2169 3728 2063 4100
Q 1975 3659 1816 3225
L 1313 1881
z
" transform="scale(0.015625)"/>
      <path id="ArialMT-55" d="M 3500 4581
L 4106 4581
L 4106 1934
Q 4106 1244 3950 837
Q 3794 431 3386 176
Q 2978 -78 2316 -78
Q 1672 -78 1262 144
Q 853 366 678 786
Q 503 1206 503 1934
L 503 4581
L 1109 4581
L 1109 1938
Q 1109 1341 1220 1058
Q 1331 775 1601 622
Q 1872 469 2263 469
Q 2931 469 3215 772
Q 3500 1075 3500 1938
L 3500 4581
z
" transform="scale(0.015625)"/>
      <path id="ArialMT-52" d="M 503 0
L 503 4581
L 2534 4581
Q 3147 4581 3465 4457
Q 3784 4334 3975 4021
Q 4166 3709 4166 3331
Q 4166 2844 3850 2509
Q 3534 2175 2875 2084
Q 3116 1969 3241 1856
Q 3506 1613 3744 1247
L 4541 0
L 3778 0
L 3172 953
Q 2906 1366 2734 1584
Q 2563 1803 2427 1890
Q 2291 1978 2150 2013
Q 2047 2034 1813 2034
L 1109 2034
L 1109 0
L 503 0
z
M 1109 2559
L 2413 2559
Q 2828 2559 3062 2645
Q 3297 2731 3419 2920
Q 3541 3109 3541 3331
Q 3541 3656 3305 3865
Q 3069 4075 2559 4075
L 1109 4075
L 1109 2559
z
" transform="scale(0.015625)"/>
      <path id="ArialMT-4f" d="M 309 2231
Q 309 3372 921 4017
Q 1534 4663 2503 4663
Q 3138 4663 3647 4359
Q 4156 4056 4423 3514
Q 4691 2972 4691 2284
Q 4691 1588 4409 1038
Q 4128 488 3612 205
Q 3097 -78 2500 -78
Q 1853 -78 1343 234
Q 834 547 571 1087
Q 309 1628 309 2231
z
M 934 2222
Q 934 1394 1379 917
Q 1825 441 2497 441
Q 3181 441 3623 922
Q 4066 1403 4066 2288
Q 4066 2847 3877 3264
Q 3688 3681 3323 3911
Q 2959 4141 2506 4141
Q 1863 4141 1398 3698
Q 934 3256 934 2222
z
" transform="scale(0.015625)"/>
      <path id="ArialMT-43" d="M 3763 1606
L 4369 1453
Q 4178 706 3683 314
Q 3188 -78 2472 -78
Q 1731 -78 1267 223
Q 803 525 561 1097
Q 319 1669 319 2325
Q 319 3041 592 3573
Q 866 4106 1370 4382
Q 1875 4659 2481 4659
Q 3169 4659 3637 4309
Q 4106 3959 4291 3325
L 3694 3184
Q 3534 3684 3231 3912
Q 2928 4141 2469 4141
Q 1941 4141 1586 3887
Q 1231 3634 1087 3207
Q 944 2781 944 2328
Q 944 1744 1114 1308
Q 1284 872 1643 656
Q 2003 441 2422 441
Q 2931 441 3284 734
Q 3638 1028 3763 1606
z
" transform="scale(0.015625)"/>
     </defs>
     <use xlink:href="#ArialMT-41"/>
     <use xlink:href="#ArialMT-55" transform="translate(66.699219 0)"/>
     <use xlink:href="#ArialMT-52" transform="translate(138.916016 0)"/>
     <use xlink:href="#ArialMT-4f" transform="translate(211.132812 0)"/>
     <use xlink:href="#ArialMT-43" transform="translate(288.916016 0)"/>
    </g>
   </g>
   <g id="PathCollection_2">
    <g clip-path="url(#pbe88bef69b)">
     <use xlink:href="#m89c04bf2d9" x="214.807238" y="446.357568" style="fill: #1f77b4; stroke: #ffffff; stroke-width: 0.8"/>
    </g>
   </g>
   <g id="text_11">
    <!-- Accuracy -->
    <g style="fill: #444444" transform="translate(44.233846 448.631474) scale(0.09 -0.09)">
     <defs>
      <path id="ArialMT-75" d="M 2597 0
L 2597 488
Q 2209 -75 1544 -75
Q 1250 -75 995 37
Q 741 150 617 320
Q 494 491 444 738
Q 409 903 409 1263
L 409 3319
L 972 3319
L 972 1478
Q 972 1038 1006 884
Q 1059 663 1231 536
Q 1403 409 1656 409
Q 1909 409 2131 539
Q 2353 669 2445 892
Q 2538 1116 2538 1541
L 2538 3319
L 3100 3319
L 3100 0
L 2597 0
z
" transform="scale(0.015625)"/>
      <path id="ArialMT-61" d="M 2588 409
Q 2275 144 1986 34
Q 1697 -75 1366 -75
Q 819 -75 525 192
Q 231 459 231 875
Q 231 1119 342 1320
Q 453 1522 633 1644
Q 813 1766 1038 1828
Q 1203 1872 1538 1913
Q 2219 1994 2541 2106
Q 2544 2222 2544 2253
Q 2544 2597 2384 2738
Q 2169 2928 1744 2928
Q 1347 2928 1158 2789
Q 969 2650 878 2297
L 328 2372
Q 403 2725 575 2942
Q 747 3159 1072 3276
Q 1397 3394 1825 3394
Q 2250 3394 2515 3294
Q 2781 3194 2906 3042
Q 3031 2891 3081 2659
Q 3109 2516 3109 2141
L 3109 1391
Q 3109 606 3145 398
Q 3181 191 3288 0
L 2700 0
Q 2613 175 2588 409
z
M 2541 1666
Q 2234 1541 1622 1453
Q 1275 1403 1131 1340
Q 988 1278 909 1158
Q 831 1038 831 891
Q 831 666 1001 516
Q 1172 366 1500 366
Q 1825 366 2078 508
Q 2331 650 2450 897
Q 2541 1088 2541 1459
L 2541 1666
z
" transform="scale(0.015625)"/>
      <path id="ArialMT-79" d="M 397 -1278
L 334 -750
Q 519 -800 656 -800
Q 844 -800 956 -737
Q 1069 -675 1141 -563
Q 1194 -478 1313 -144
Q 1328 -97 1363 -6
L 103 3319
L 709 3319
L 1400 1397
Q 1534 1031 1641 628
Q 1738 1016 1872 1384
L 2581 3319
L 3144 3319
L 1881 -56
Q 1678 -603 1566 -809
Q 1416 -1088 1222 -1217
Q 1028 -1347 759 -1347
Q 597 -1347 397 -1278
z
" transform="scale(0.015625)"/>
     </defs>
     <use xlink:href="#ArialMT-41"/>
     <use xlink:href="#ArialMT-63" transform="translate(66.699219 0)"/>
     <use xlink:href="#ArialMT-63" transform="translate(116.699219 0)"/>
     <use xlink:href="#ArialMT-75" transform="translate(166.699219 0)"/>
     <use xlink:href="#ArialMT-72" transform="translate(222.314453 0)"/>
     <use xlink:href="#ArialMT-61" transform="translate(255.615234 0)"/>
     <use xlink:href="#ArialMT-63" transform="translate(311.230469 0)"/>
     <use xlink:href="#ArialMT-79" transform="translate(361.230469 0)"/>
    </g>
   </g>
   <g id="PathCollection_3">
    <g clip-path="url(#pbe88bef69b)">
     <use xlink:href="#m89c04bf2d9" x="193.158707" y="475.944485" style="fill: #1f77b4; stroke: #ffffff; stroke-width: 0.8"/>
    </g>
   </g>
   <g id="text_12">
    <!-- F1 -->
    <g style="fill: #444444" transform="translate(70.741659 478.271125) scale(0.09 -0.09)">
     <defs>
      <path id="ArialMT-46" d="M 525 0
L 525 4581
L 3616 4581
L 3616 4041
L 1131 4041
L 1131 2622
L 3281 2622
L 3281 2081
L 1131 2081
L 1131 0
L 525 0
z
" transform="scale(0.015625)"/>
     </defs>
     <use xlink:href="#ArialMT-46"/>
     <use xlink:href="#ArialMT-31" transform="translate(61.083984 0)"/>
    </g>
   </g>
   <g id="PathCollection_4">
    <g clip-path="url(#pbe88bef69b)">
     <use xlink:href="#m89c04bf2d9" x="160.29933" y="416.770652" style="fill: #1f77b4; stroke: #ffffff; stroke-width: 0.8"/>
    </g>
   </g>
   <g id="text_13">
    <!-- Jaccard -->
    <g style="fill: #444444" transform="translate(49.732284 419.097292) scale(0.09 -0.09)">
     <defs>
      <path id="ArialMT-4a" d="M 184 1300
L 731 1375
Q 753 850 928 656
Q 1103 463 1413 463
Q 1641 463 1806 567
Q 1972 672 2034 851
Q 2097 1031 2097 1425
L 2097 4581
L 2703 4581
L 2703 1459
Q 2703 884 2564 568
Q 2425 253 2123 87
Q 1822 -78 1416 -78
Q 813 -78 492 269
Q 172 616 184 1300
z
" transform="scale(0.015625)"/>
      <path id="ArialMT-64" d="M 2575 0
L 2575 419
Q 2259 -75 1647 -75
Q 1250 -75 917 144
Q 584 363 401 755
Q 219 1147 219 1656
Q 219 2153 384 2558
Q 550 2963 881 3178
Q 1213 3394 1622 3394
Q 1922 3394 2156 3267
Q 2391 3141 2538 2938
L 2538 4581
L 3097 4581
L 3097 0
L 2575 0
z
M 797 1656
Q 797 1019 1065 703
Q 1334 388 1700 388
Q 2069 388 2326 689
Q 2584 991 2584 1609
Q 2584 2291 2321 2609
Q 2059 2928 1675 2928
Q 1300 2928 1048 2622
Q 797 2316 797 1656
z
" transform="scale(0.015625)"/>
     </defs>
     <use xlink:href="#ArialMT-4a"/>
     <use xlink:href="#ArialMT-61" transform="translate(50 0)"/>
     <use xlink:href="#ArialMT-63" transform="translate(105.615234 0)"/>
     <use xlink:href="#ArialMT-63" transform="translate(155.615234 0)"/>
     <use xlink:href="#ArialMT-61" transform="translate(205.615234 0)"/>
     <use xlink:href="#ArialMT-72" transform="translate(261.230469 0)"/>
     <use xlink:href="#ArialMT-64" transform="translate(294.53125 0)"/>
    </g>
   </g>
   <g id="PathCollection_5">
    <g clip-path="url(#pbe88bef69b)">
     <use xlink:href="#m89c04bf2d9" x="194.125159" y="252.69775" style="fill: #1f77b4; stroke: #ffffff; stroke-width: 0.8"/>
    </g>
   </g>
   <g id="text_14">
    <!-- AUROC -->
    <g style="fill: #444444" transform="translate(48.740878 255.024391) scale(0.09 -0.09)">
     <use xlink:href="#ArialMT-41"/>
     <use xlink:href="#ArialMT-55" transform="translate(66.699219 0)"/>
     <use xlink:href="#ArialMT-52" transform="translate(138.916016 0)"/>
     <use xlink:href="#ArialMT-4f" transform="translate(211.132812 0)"/>
     <use xlink:href="#ArialMT-43" transform="translate(288.916016 0)"/>
    </g>
   </g>
   <g id="PathCollection_6">
    <g clip-path="url(#pbe88bef69b)">
     <use xlink:href="#m89c04bf2d9" x="237.22893" y="311.871583" style="fill: #1f77b4; stroke: #ffffff; stroke-width: 0.8"/>
    </g>
   </g>
   <g id="text_15">
    <!-- Accuracy -->
    <g style="fill: #444444" transform="translate(44.233846 314.14549) scale(0.09 -0.09)">
     <use xlink:href="#ArialMT-41"/>
     <use xlink:href="#ArialMT-63" transform="translate(66.699219 0)"/>
     <use xlink:href="#ArialMT-63" transform="translate(116.699219 0)"/>
     <use xlink:href="#ArialMT-75" transform="translate(166.699219 0)"/>
     <use xlink:href="#ArialMT-72" transform="translate(222.314453 0)"/>
     <use xlink:href="#ArialMT-61" transform="translate(255.615234 0)"/>
     <use xlink:href="#ArialMT-63" transform="translate(311.230469 0)"/>
     <use xlink:href="#ArialMT-79" transform="translate(361.230469 0)"/>
    </g>
   </g>
   <g id="PathCollection_7">
    <g clip-path="url(#pbe88bef69b)">
     <use xlink:href="#m89c04bf2d9" x="232.396669" y="341.4585" style="fill: #1f77b4; stroke: #ffffff; stroke-width: 0.8"/>
    </g>
   </g>
   <g id="text_16">
    <!-- F1 -->
    <g style="fill: #444444" transform="translate(70.741659 343.785141) scale(0.09 -0.09)">
     <use xlink:href="#ArialMT-46"/>
     <use xlink:href="#ArialMT-31" transform="translate(61.083984 0)"/>
    </g>
   </g>
   <g id="PathCollection_8">
    <g clip-path="url(#pbe88bef69b)">
     <use xlink:href="#m89c04bf2d9" x="203.596391" y="282.284667" style="fill: #1f77b4; stroke: #ffffff; stroke-width: 0.8"/>
    </g>
   </g>
   <g id="text_17">
    <!-- Jaccard -->
    <g style="fill: #444444" transform="translate(49.732284 284.611307) scale(0.09 -0.09)">
     <use xlink:href="#ArialMT-4a"/>
     <use xlink:href="#ArialMT-61" transform="translate(50 0)"/>
     <use xlink:href="#ArialMT-63" transform="translate(105.615234 0)"/>
     <use xlink:href="#ArialMT-63" transform="translate(155.615234 0)"/>
     <use xlink:href="#ArialMT-61" transform="translate(205.615234 0)"/>
     <use xlink:href="#ArialMT-72" transform="translate(261.230469 0)"/>
     <use xlink:href="#ArialMT-64" transform="translate(294.53125 0)"/>
    </g>
   </g>
   <g id="PathCollection_9">
    <g clip-path="url(#pbe88bef69b)">
     <use xlink:href="#m89c04bf2d9" x="186.973412" y="118.211765" style="fill: #1f77b4; stroke: #ffffff; stroke-width: 0.8"/>
    </g>
   </g>
   <g id="text_18">
    <!-- AUROC -->
    <g style="fill: #444444" transform="translate(48.740878 120.538406) scale(0.09 -0.09)">
     <use xlink:href="#ArialMT-41"/>
     <use xlink:href="#ArialMT-55" transform="translate(66.699219 0)"/>
     <use xlink:href="#ArialMT-52" transform="translate(138.916016 0)"/>
     <use xlink:href="#ArialMT-4f" transform="translate(211.132812 0)"/>
     <use xlink:href="#ArialMT-43" transform="translate(288.916016 0)"/>
    </g>
   </g>
   <g id="PathCollection_10">
    <g clip-path="url(#pbe88bef69b)">
     <use xlink:href="#m89c04bf2d9" x="229.304022" y="177.385598" style="fill: #1f77b4; stroke: #ffffff; stroke-width: 0.8"/>
    </g>
   </g>
   <g id="text_19">
    <!-- Accuracy -->
    <g style="fill: #444444" transform="translate(44.233846 179.659505) scale(0.09 -0.09)">
     <use xlink:href="#ArialMT-41"/>
     <use xlink:href="#ArialMT-63" transform="translate(66.699219 0)"/>
     <use xlink:href="#ArialMT-63" transform="translate(116.699219 0)"/>
     <use xlink:href="#ArialMT-75" transform="translate(166.699219 0)"/>
     <use xlink:href="#ArialMT-72" transform="translate(222.314453 0)"/>
     <use xlink:href="#ArialMT-61" transform="translate(255.615234 0)"/>
     <use xlink:href="#ArialMT-63" transform="translate(311.230469 0)"/>
     <use xlink:href="#ArialMT-79" transform="translate(361.230469 0)"/>
    </g>
   </g>
   <g id="PathCollection_11">
    <g clip-path="url(#pbe88bef69b)">
     <use xlink:href="#m89c04bf2d9" x="229.690603" y="206.972515" style="fill: #1f77b4; stroke: #ffffff; stroke-width: 0.8"/>
    </g>
   </g>
   <g id="text_20">
    <!-- F1 -->
    <g style="fill: #444444" transform="translate(70.741659 209.299156) scale(0.09 -0.09)">
     <use xlink:href="#ArialMT-46"/>
     <use xlink:href="#ArialMT-31" transform="translate(61.083984 0)"/>
    </g>
   </g>
   <g id="PathCollection_12">
    <g clip-path="url(#pbe88bef69b)">
     <use xlink:href="#m89c04bf2d9" x="199.923873" y="147.798682" style="fill: #1f77b4; stroke: #ffffff; stroke-width: 0.8"/>
    </g>
   </g>
   <g id="text_21">
    <!-- Jaccard -->
    <g style="fill: #444444" transform="translate(49.732284 150.125322) scale(0.09 -0.09)">
     <use xlink:href="#ArialMT-4a"/>
     <use xlink:href="#ArialMT-61" transform="translate(50 0)"/>
     <use xlink:href="#ArialMT-63" transform="translate(105.615234 0)"/>
     <use xlink:href="#ArialMT-63" transform="translate(155.615234 0)"/>
     <use xlink:href="#ArialMT-61" transform="translate(205.615234 0)"/>
     <use xlink:href="#ArialMT-72" transform="translate(261.230469 0)"/>
     <use xlink:href="#ArialMT-64" transform="translate(294.53125 0)"/>
    </g>
   </g>
   <g id="text_22">
    <!-- All Paths -->
    <g style="fill: #262626" transform="translate(160.009975 69.17625) scale(0.12 -0.12)">
     <defs>
      <path id="ArialMT-6c" d="M 409 0
L 409 4581
L 972 4581
L 972 0
L 409 0
z
" transform="scale(0.015625)"/>
      <path id="ArialMT-20" transform="scale(0.015625)"/>
      <path id="ArialMT-50" d="M 494 0
L 494 4581
L 2222 4581
Q 2678 4581 2919 4538
Q 3256 4481 3484 4323
Q 3713 4166 3852 3881
Q 3991 3597 3991 3256
Q 3991 2672 3619 2267
Q 3247 1863 2275 1863
L 1100 1863
L 1100 0
L 494 0
z
M 1100 2403
L 2284 2403
Q 2872 2403 3119 2622
Q 3366 2841 3366 3238
Q 3366 3525 3220 3729
Q 3075 3934 2838 4000
Q 2684 4041 2272 4041
L 1100 4041
L 1100 2403
z
" transform="scale(0.015625)"/>
      <path id="ArialMT-74" d="M 1650 503
L 1731 6
Q 1494 -44 1306 -44
Q 1000 -44 831 53
Q 663 150 594 308
Q 525 466 525 972
L 525 2881
L 113 2881
L 113 3319
L 525 3319
L 525 4141
L 1084 4478
L 1084 3319
L 1650 3319
L 1650 2881
L 1084 2881
L 1084 941
Q 1084 700 1114 631
Q 1144 563 1211 522
Q 1278 481 1403 481
Q 1497 481 1650 503
z
" transform="scale(0.015625)"/>
      <path id="ArialMT-68" d="M 422 0
L 422 4581
L 984 4581
L 984 2938
Q 1378 3394 1978 3394
Q 2347 3394 2619 3248
Q 2891 3103 3008 2847
Q 3125 2591 3125 2103
L 3125 0
L 2563 0
L 2563 2103
Q 2563 2525 2380 2717
Q 2197 2909 1863 2909
Q 1613 2909 1392 2779
Q 1172 2650 1078 2428
Q 984 2206 984 1816
L 984 0
L 422 0
z
" transform="scale(0.015625)"/>
      <path id="ArialMT-73" d="M 197 991
L 753 1078
Q 800 744 1014 566
Q 1228 388 1613 388
Q 2000 388 2187 545
Q 2375 703 2375 916
Q 2375 1106 2209 1216
Q 2094 1291 1634 1406
Q 1016 1563 777 1677
Q 538 1791 414 1992
Q 291 2194 291 2438
Q 291 2659 392 2848
Q 494 3038 669 3163
Q 800 3259 1026 3326
Q 1253 3394 1513 3394
Q 1903 3394 2198 3281
Q 2494 3169 2634 2976
Q 2775 2784 2828 2463
L 2278 2388
Q 2241 2644 2061 2787
Q 1881 2931 1553 2931
Q 1166 2931 1000 2803
Q 834 2675 834 2503
Q 834 2394 903 2306
Q 972 2216 1119 2156
Q 1203 2125 1616 2013
Q 2213 1853 2448 1751
Q 2684 1650 2818 1456
Q 2953 1263 2953 975
Q 2953 694 2789 445
Q 2625 197 2315 61
Q 2006 -75 1616 -75
Q 969 -75 630 194
Q 291 463 197 991
z
" transform="scale(0.015625)"/>
     </defs>
     <use xlink:href="#ArialMT-41"/>
     <use xlink:href="#ArialMT-6c" transform="translate(66.699219 0)"/>
     <use xlink:href="#ArialMT-6c" transform="translate(88.916016 0)"/>
     <use xlink:href="#ArialMT-20" transform="translate(111.132812 0)"/>
     <use xlink:href="#ArialMT-50" transform="translate(138.916016 0)"/>
     <use xlink:href="#ArialMT-61" transform="translate(205.615234 0)"/>
     <use xlink:href="#ArialMT-74" transform="translate(261.230469 0)"/>
     <use xlink:href="#ArialMT-68" transform="translate(289.013672 0)"/>
     <use xlink:href="#ArialMT-73" transform="translate(344.628906 0)"/>
    </g>
   </g>
   <g id="PathCollection_13">
    <defs>
     <path id="m456f184850" d="M 0 3.872983
C 1.027127 3.872983 2.012324 3.464901 2.738613 2.738613
C 3.464901 2.012324 3.872983 1.027127 3.872983 0
C 3.872983 -1.027127 3.464901 -2.012324 2.738613 -2.738613
C 2.012324 -3.464901 1.027127 -3.872983 0 -3.872983
C -1.027127 -3.872983 -2.012324 -3.464901 -2.738613 -2.738613
C -3.464901 -2.012324 -3.872983 -1.027127 -3.872983 0
C -3.872983 1.027127 -3.464901 2.012324 -2.738613 2.738613
C -2.012324 3.464901 -1.027127 3.872983 0 3.872983
z
" style="stroke: #ffffff; stroke-width: 0.8"/>
    </defs>
    <g clip-path="url(#pbe88bef69b)">
     <use xlink:href="#m456f184850" x="174.796114" y="387.183735" style="fill: #d62728; stroke: #ffffff; stroke-width: 0.8"/>
    </g>
   </g>
   <g id="PathCollection_14">
    <g clip-path="url(#pbe88bef69b)">
     <use xlink:href="#m456f184850" x="214.807238" y="446.357568" style="fill: #d62728; stroke: #ffffff; stroke-width: 0.8"/>
    </g>
   </g>
   <g id="PathCollection_15">
    <g clip-path="url(#pbe88bef69b)">
     <use xlink:href="#m456f184850" x="196.831225" y="475.944485" style="fill: #d62728; stroke: #ffffff; stroke-width: 0.8"/>
    </g>
   </g>
   <g id="PathCollection_16">
    <g clip-path="url(#pbe88bef69b)">
     <use xlink:href="#m456f184850" x="163.778558" y="416.770652" style="fill: #d62728; stroke: #ffffff; stroke-width: 0.8"/>
    </g>
   </g>
   <g id="PathCollection_17">
    <g clip-path="url(#pbe88bef69b)">
     <use xlink:href="#m456f184850" x="196.831225" y="252.69775" style="fill: #d62728; stroke: #ffffff; stroke-width: 0.8"/>
    </g>
   </g>
   <g id="PathCollection_18">
    <g clip-path="url(#pbe88bef69b)">
     <use xlink:href="#m456f184850" x="226.018084" y="311.871583" style="fill: #d62728; stroke: #ffffff; stroke-width: 0.8"/>
    </g>
   </g>
   <g id="PathCollection_19">
    <g clip-path="url(#pbe88bef69b)">
     <use xlink:href="#m456f184850" x="230.463765" y="341.4585" style="fill: #d62728; stroke: #ffffff; stroke-width: 0.8"/>
    </g>
   </g>
   <g id="PathCollection_20">
    <g clip-path="url(#pbe88bef69b)">
     <use xlink:href="#m456f184850" x="201.083615" y="282.284667" style="fill: #d62728; stroke: #ffffff; stroke-width: 0.8"/>
    </g>
   </g>
   <g id="PathCollection_21">
    <g clip-path="url(#pbe88bef69b)">
     <use xlink:href="#m456f184850" x="202.629939" y="118.211765" style="fill: #d62728; stroke: #ffffff; stroke-width: 0.8"/>
    </g>
   </g>
   <g id="PathCollection_22">
    <g clip-path="url(#pbe88bef69b)">
     <use xlink:href="#m456f184850" x="221.185823" y="177.385598" style="fill: #d62728; stroke: #ffffff; stroke-width: 0.8"/>
    </g>
   </g>
   <g id="PathCollection_23">
    <g clip-path="url(#pbe88bef69b)">
     <use xlink:href="#m456f184850" x="218.093175" y="206.972515" style="fill: #d62728; stroke: #ffffff; stroke-width: 0.8"/>
    </g>
   </g>
   <g id="PathCollection_24">
    <g clip-path="url(#pbe88bef69b)">
     <use xlink:href="#m456f184850" x="186.200251" y="147.798682" style="fill: #d62728; stroke: #ffffff; stroke-width: 0.8"/>
    </g>
   </g>
  </g>
  <g id="axes_2">
   <g id="patch_6">
    <path d="M 289.997224 518.98
L 483.287678 518.98
L 483.287678 75.17625
L 289.997224 75.17625
z
" style="fill: #ffffff"/>
   </g>
   <g id="patch_7">
    <path d="M 289.997224 498.807102
L 483.287678 498.807102
L 483.287678 364.321117
L 289.997224 364.321117
z
" clip-path="url(#p9a6ecbaf40)" style="fill: #f7f7f7; stroke: #f7f7f7; stroke-linejoin: miter"/>
   </g>
   <g id="patch_8">
    <path d="M 289.997224 229.835133
L 483.287678 229.835133
L 483.287678 95.349148
L 289.997224 95.349148
z
" clip-path="url(#p9a6ecbaf40)" style="fill: #f7f7f7; stroke: #f7f7f7; stroke-linejoin: miter"/>
   </g>
   <g id="matplotlib.axis_3">
    <g id="xtick_6">
     <g id="line2d_18">
      <path d="M 289.997224 518.98
L 289.997224 75.17625
" clip-path="url(#p9a6ecbaf40)" style="fill: none; stroke-dasharray: 3.7,1.6; stroke-dashoffset: 0; stroke: #cccccc; stroke-opacity: 0.3"/>
     </g>
     <g id="text_23">
      <!-- 0 -->
      <g style="fill: #262626" transform="translate(286.938709 536.353594) scale(0.11 -0.11)">
       <use xlink:href="#ArialMT-30"/>
      </g>
     </g>
    </g>
    <g id="xtick_7">
     <g id="line2d_19">
      <path d="M 338.319838 518.98
L 338.319838 75.17625
" clip-path="url(#p9a6ecbaf40)" style="fill: none; stroke-dasharray: 3.7,1.6; stroke-dashoffset: 0; stroke: #cccccc; stroke-opacity: 0.3"/>
     </g>
     <g id="text_24">
      <!-- 0.25 -->
      <g style="fill: #262626" transform="translate(327.616322 536.353594) scale(0.11 -0.11)">
       <use xlink:href="#ArialMT-30"/>
       <use xlink:href="#ArialMT-2e" transform="translate(55.615234 0)"/>
       <use xlink:href="#ArialMT-32" transform="translate(83.398438 0)"/>
       <use xlink:href="#ArialMT-35" transform="translate(139.013672 0)"/>
      </g>
     </g>
    </g>
    <g id="xtick_8">
     <g id="line2d_20">
      <path d="M 386.642451 518.98
L 386.642451 75.17625
" clip-path="url(#p9a6ecbaf40)" style="fill: none; stroke-dasharray: 3.7,1.6; stroke-dashoffset: 0; stroke: #cccccc; stroke-opacity: 0.3"/>
     </g>
     <g id="text_25">
      <!-- 0.5 -->
      <g style="fill: #262626" transform="translate(378.997451 536.353594) scale(0.11 -0.11)">
       <use xlink:href="#ArialMT-30"/>
       <use xlink:href="#ArialMT-2e" transform="translate(55.615234 0)"/>
       <use xlink:href="#ArialMT-35" transform="translate(83.398438 0)"/>
      </g>
     </g>
    </g>
    <g id="xtick_9">
     <g id="line2d_21">
      <path d="M 434.965065 518.98
L 434.965065 75.17625
" clip-path="url(#p9a6ecbaf40)" style="fill: none; stroke-dasharray: 3.7,1.6; stroke-dashoffset: 0; stroke: #cccccc; stroke-opacity: 0.3"/>
     </g>
     <g id="text_26">
      <!-- 0.75 -->
      <g style="fill: #262626" transform="translate(424.261549 536.353594) scale(0.11 -0.11)">
       <use xlink:href="#ArialMT-30"/>
       <use xlink:href="#ArialMT-2e" transform="translate(55.615234 0)"/>
       <use xlink:href="#ArialMT-37" transform="translate(83.398438 0)"/>
       <use xlink:href="#ArialMT-35" transform="translate(139.013672 0)"/>
      </g>
     </g>
    </g>
    <g id="xtick_10">
     <g id="line2d_22">
      <path d="M 483.287678 518.98
L 483.287678 75.17625
" clip-path="url(#p9a6ecbaf40)" style="fill: none; stroke-dasharray: 3.7,1.6; stroke-dashoffset: 0; stroke: #cccccc; stroke-opacity: 0.3"/>
     </g>
     <g id="text_27">
      <!-- 1 -->
      <g style="fill: #262626" transform="translate(480.229163 536.353594) scale(0.11 -0.11)">
       <use xlink:href="#ArialMT-31"/>
      </g>
     </g>
    </g>
    <g id="text_28">
     <!-- Score -->
     <g style="fill: #262626" transform="translate(372.27542 550.413437) scale(0.11 -0.11)">
      <use xlink:href="#ArialMT-53"/>
      <use xlink:href="#ArialMT-63" transform="translate(66.699219 0)"/>
      <use xlink:href="#ArialMT-6f" transform="translate(116.699219 0)"/>
      <use xlink:href="#ArialMT-72" transform="translate(172.314453 0)"/>
      <use xlink:href="#ArialMT-65" transform="translate(205.615234 0)"/>
     </g>
    </g>
   </g>
   <g id="matplotlib.axis_4"/>
   <g id="line2d_23">
    <path d="M 415.82931 387.183735
L 414.089696 387.183735
" clip-path="url(#p9a6ecbaf40)" style="fill: none; stroke: #000000; stroke-opacity: 0.2; stroke-linecap: round"/>
   </g>
   <g id="line2d_24">
    <path d="M 460.865986 446.357568
L 432.258999 446.357568
" clip-path="url(#p9a6ecbaf40)" style="fill: none; stroke: #000000; stroke-opacity: 0.2; stroke-linecap: round"/>
   </g>
   <g id="line2d_25">
    <path d="M 360.35495 475.944485
L 336.000352 475.944485
" clip-path="url(#p9a6ecbaf40)" style="fill: none; stroke: #000000; stroke-opacity: 0.2; stroke-linecap: round"/>
   </g>
   <g id="line2d_26">
    <path d="M 332.907705 416.770652
L 316.091436 416.770652
" clip-path="url(#p9a6ecbaf40)" style="fill: none; stroke: #000000; stroke-opacity: 0.2; stroke-linecap: round"/>
   </g>
   <g id="line2d_27">
    <path d="M 420.854862 252.69775
L 422.014605 252.69775
" clip-path="url(#p9a6ecbaf40)" style="fill: none; stroke: #000000; stroke-opacity: 0.2; stroke-linecap: round"/>
   </g>
   <g id="line2d_28">
    <path d="M 433.805322 311.871583
L 452.941077 311.871583
" clip-path="url(#p9a6ecbaf40)" style="fill: none; stroke: #000000; stroke-opacity: 0.2; stroke-linecap: round"/>
   </g>
   <g id="line2d_29">
    <path d="M 350.110556 341.4585
L 364.80063 341.4585
" clip-path="url(#p9a6ecbaf40)" style="fill: none; stroke: #000000; stroke-opacity: 0.2; stroke-linecap: round"/>
   </g>
   <g id="line2d_30">
    <path d="M 325.562668 282.284667
L 336.386933 282.284667
" clip-path="url(#p9a6ecbaf40)" style="fill: none; stroke: #000000; stroke-opacity: 0.2; stroke-linecap: round"/>
   </g>
   <g id="line2d_31">
    <path d="M 408.484273 118.211765
L 398.433169 118.211765
" clip-path="url(#p9a6ecbaf40)" style="fill: none; stroke: #000000; stroke-opacity: 0.2; stroke-linecap: round"/>
   </g>
   <g id="line2d_32">
    <path d="M 430.519385 177.385598
L 421.048152 177.385598
" clip-path="url(#p9a6ecbaf40)" style="fill: none; stroke: #000000; stroke-opacity: 0.2; stroke-linecap: round"/>
   </g>
   <g id="line2d_33">
    <path d="M 341.605776 206.972515
L 329.428477 206.972515
" clip-path="url(#p9a6ecbaf40)" style="fill: none; stroke: #000000; stroke-opacity: 0.2; stroke-linecap: round"/>
   </g>
   <g id="line2d_34">
    <path d="M 319.763954 147.798682
L 312.032336 147.798682
" clip-path="url(#p9a6ecbaf40)" style="fill: none; stroke: #000000; stroke-opacity: 0.2; stroke-linecap: round"/>
   </g>
   <g id="patch_9">
    <path d="M 289.997224 518.98
L 483.287678 518.98
" style="fill: none; stroke: #262626; stroke-width: 1.25; stroke-linejoin: miter; stroke-linecap: square"/>
   </g>
   <g id="PathCollection_25">
    <g clip-path="url(#p9a6ecbaf40)">
     <use xlink:href="#m89c04bf2d9" x="415.82931" y="387.183735" style="fill: #1f77b4; stroke: #ffffff; stroke-width: 0.8"/>
    </g>
   </g>
   <g id="PathCollection_26">
    <g clip-path="url(#p9a6ecbaf40)">
     <use xlink:href="#m89c04bf2d9" x="460.865986" y="446.357568" style="fill: #1f77b4; stroke: #ffffff; stroke-width: 0.8"/>
    </g>
   </g>
   <g id="PathCollection_27">
    <g clip-path="url(#p9a6ecbaf40)">
     <use xlink:href="#m89c04bf2d9" x="360.35495" y="475.944485" style="fill: #1f77b4; stroke: #ffffff; stroke-width: 0.8"/>
    </g>
   </g>
   <g id="PathCollection_28">
    <g clip-path="url(#p9a6ecbaf40)">
     <use xlink:href="#m89c04bf2d9" x="332.907705" y="416.770652" style="fill: #1f77b4; stroke: #ffffff; stroke-width: 0.8"/>
    </g>
   </g>
   <g id="PathCollection_29">
    <g clip-path="url(#p9a6ecbaf40)">
     <use xlink:href="#m89c04bf2d9" x="420.854862" y="252.69775" style="fill: #1f77b4; stroke: #ffffff; stroke-width: 0.8"/>
    </g>
   </g>
   <g id="PathCollection_30">
    <g clip-path="url(#p9a6ecbaf40)">
     <use xlink:href="#m89c04bf2d9" x="433.805322" y="311.871583" style="fill: #1f77b4; stroke: #ffffff; stroke-width: 0.8"/>
    </g>
   </g>
   <g id="PathCollection_31">
    <g clip-path="url(#p9a6ecbaf40)">
     <use xlink:href="#m89c04bf2d9" x="350.110556" y="341.4585" style="fill: #1f77b4; stroke: #ffffff; stroke-width: 0.8"/>
    </g>
   </g>
   <g id="PathCollection_32">
    <g clip-path="url(#p9a6ecbaf40)">
     <use xlink:href="#m89c04bf2d9" x="325.562668" y="282.284667" style="fill: #1f77b4; stroke: #ffffff; stroke-width: 0.8"/>
    </g>
   </g>
   <g id="PathCollection_33">
    <g clip-path="url(#p9a6ecbaf40)">
     <use xlink:href="#m89c04bf2d9" x="408.484273" y="118.211765" style="fill: #1f77b4; stroke: #ffffff; stroke-width: 0.8"/>
    </g>
   </g>
   <g id="PathCollection_34">
    <g clip-path="url(#p9a6ecbaf40)">
     <use xlink:href="#m89c04bf2d9" x="430.519385" y="177.385598" style="fill: #1f77b4; stroke: #ffffff; stroke-width: 0.8"/>
    </g>
   </g>
   <g id="PathCollection_35">
    <g clip-path="url(#p9a6ecbaf40)">
     <use xlink:href="#m89c04bf2d9" x="341.605776" y="206.972515" style="fill: #1f77b4; stroke: #ffffff; stroke-width: 0.8"/>
    </g>
   </g>
   <g id="PathCollection_36">
    <g clip-path="url(#p9a6ecbaf40)">
     <use xlink:href="#m89c04bf2d9" x="319.763954" y="147.798682" style="fill: #1f77b4; stroke: #ffffff; stroke-width: 0.8"/>
    </g>
   </g>
   <g id="text_29">
    <!-- Simple -->
    <g style="fill: #262626" transform="translate(368.303076 69.17625) scale(0.12 -0.12)">
     <defs>
      <path id="ArialMT-69" d="M 425 3934
L 425 4581
L 988 4581
L 988 3934
L 425 3934
z
M 425 0
L 425 3319
L 988 3319
L 988 0
L 425 0
z
" transform="scale(0.015625)"/>
      <path id="ArialMT-6d" d="M 422 0
L 422 3319
L 925 3319
L 925 2853
Q 1081 3097 1340 3245
Q 1600 3394 1931 3394
Q 2300 3394 2536 3241
Q 2772 3088 2869 2813
Q 3263 3394 3894 3394
Q 4388 3394 4653 3120
Q 4919 2847 4919 2278
L 4919 0
L 4359 0
L 4359 2091
Q 4359 2428 4304 2576
Q 4250 2725 4106 2815
Q 3963 2906 3769 2906
Q 3419 2906 3187 2673
Q 2956 2441 2956 1928
L 2956 0
L 2394 0
L 2394 2156
Q 2394 2531 2256 2718
Q 2119 2906 1806 2906
Q 1569 2906 1367 2781
Q 1166 2656 1075 2415
Q 984 2175 984 1722
L 984 0
L 422 0
z
" transform="scale(0.015625)"/>
      <path id="ArialMT-70" d="M 422 -1272
L 422 3319
L 934 3319
L 934 2888
Q 1116 3141 1344 3267
Q 1572 3394 1897 3394
Q 2322 3394 2647 3175
Q 2972 2956 3137 2557
Q 3303 2159 3303 1684
Q 3303 1175 3120 767
Q 2938 359 2589 142
Q 2241 -75 1856 -75
Q 1575 -75 1351 44
Q 1128 163 984 344
L 984 -1272
L 422 -1272
z
M 931 1641
Q 931 1000 1190 694
Q 1450 388 1819 388
Q 2194 388 2461 705
Q 2728 1022 2728 1688
Q 2728 2322 2467 2637
Q 2206 2953 1844 2953
Q 1484 2953 1207 2617
Q 931 2281 931 1641
z
" transform="scale(0.015625)"/>
     </defs>
     <use xlink:href="#ArialMT-53"/>
     <use xlink:href="#ArialMT-69" transform="translate(66.699219 0)"/>
     <use xlink:href="#ArialMT-6d" transform="translate(88.916016 0)"/>
     <use xlink:href="#ArialMT-70" transform="translate(172.216797 0)"/>
     <use xlink:href="#ArialMT-6c" transform="translate(227.832031 0)"/>
     <use xlink:href="#ArialMT-65" transform="translate(250.048828 0)"/>
    </g>
   </g>
   <g id="PathCollection_37">
    <g clip-path="url(#p9a6ecbaf40)">
     <use xlink:href="#m456f184850" x="414.089696" y="387.183735" style="fill: #d62728; stroke: #ffffff; stroke-width: 0.8"/>
    </g>
   </g>
   <g id="PathCollection_38">
    <g clip-path="url(#p9a6ecbaf40)">
     <use xlink:href="#m456f184850" x="432.258999" y="446.357568" style="fill: #d62728; stroke: #ffffff; stroke-width: 0.8"/>
    </g>
   </g>
   <g id="PathCollection_39">
    <g clip-path="url(#p9a6ecbaf40)">
     <use xlink:href="#m456f184850" x="336.000352" y="475.944485" style="fill: #d62728; stroke: #ffffff; stroke-width: 0.8"/>
    </g>
   </g>
   <g id="PathCollection_40">
    <g clip-path="url(#p9a6ecbaf40)">
     <use xlink:href="#m456f184850" x="316.091436" y="416.770652" style="fill: #d62728; stroke: #ffffff; stroke-width: 0.8"/>
    </g>
   </g>
   <g id="PathCollection_41">
    <g clip-path="url(#p9a6ecbaf40)">
     <use xlink:href="#m456f184850" x="422.014605" y="252.69775" style="fill: #d62728; stroke: #ffffff; stroke-width: 0.8"/>
    </g>
   </g>
   <g id="PathCollection_42">
    <g clip-path="url(#p9a6ecbaf40)">
     <use xlink:href="#m456f184850" x="452.941077" y="311.871583" style="fill: #d62728; stroke: #ffffff; stroke-width: 0.8"/>
    </g>
   </g>
   <g id="PathCollection_43">
    <g clip-path="url(#p9a6ecbaf40)">
     <use xlink:href="#m456f184850" x="364.80063" y="341.4585" style="fill: #d62728; stroke: #ffffff; stroke-width: 0.8"/>
    </g>
   </g>
   <g id="PathCollection_44">
    <g clip-path="url(#p9a6ecbaf40)">
     <use xlink:href="#m456f184850" x="336.386933" y="282.284667" style="fill: #d62728; stroke: #ffffff; stroke-width: 0.8"/>
    </g>
   </g>
   <g id="PathCollection_45">
    <g clip-path="url(#p9a6ecbaf40)">
     <use xlink:href="#m456f184850" x="398.433169" y="118.211765" style="fill: #d62728; stroke: #ffffff; stroke-width: 0.8"/>
    </g>
   </g>
   <g id="PathCollection_46">
    <g clip-path="url(#p9a6ecbaf40)">
     <use xlink:href="#m456f184850" x="421.048152" y="177.385598" style="fill: #d62728; stroke: #ffffff; stroke-width: 0.8"/>
    </g>
   </g>
   <g id="PathCollection_47">
    <g clip-path="url(#p9a6ecbaf40)">
     <use xlink:href="#m456f184850" x="329.428477" y="206.972515" style="fill: #d62728; stroke: #ffffff; stroke-width: 0.8"/>
    </g>
   </g>
   <g id="PathCollection_48">
    <g clip-path="url(#p9a6ecbaf40)">
     <use xlink:href="#m456f184850" x="312.032336" y="147.798682" style="fill: #d62728; stroke: #ffffff; stroke-width: 0.8"/>
    </g>
   </g>
  </g>
  <g id="text_30">
   <!-- Suo Dataset -->
   <g style="fill: #262626" transform="translate(230.462678 18.6525) scale(0.16 -0.16)">
    <defs>
     <path id="ArialMT-44" d="M 494 0
L 494 4581
L 2072 4581
Q 2606 4581 2888 4516
Q 3281 4425 3559 4188
Q 3922 3881 4101 3404
Q 4281 2928 4281 2316
Q 4281 1794 4159 1391
Q 4038 988 3847 723
Q 3656 459 3429 307
Q 3203 156 2883 78
Q 2563 0 2147 0
L 494 0
z
M 1100 541
L 2078 541
Q 2531 541 2789 625
Q 3047 709 3200 863
Q 3416 1078 3536 1442
Q 3656 1806 3656 2325
Q 3656 3044 3420 3430
Q 3184 3816 2847 3947
Q 2603 4041 2063 4041
L 1100 4041
L 1100 541
z
" transform="scale(0.015625)"/>
    </defs>
    <use xlink:href="#ArialMT-53"/>
    <use xlink:href="#ArialMT-75" transform="translate(66.699219 0)"/>
    <use xlink:href="#ArialMT-6f" transform="translate(122.314453 0)"/>
    <use xlink:href="#ArialMT-20" transform="translate(177.929688 0)"/>
    <use xlink:href="#ArialMT-44" transform="translate(205.712891 0)"/>
    <use xlink:href="#ArialMT-61" transform="translate(277.929688 0)"/>
    <use xlink:href="#ArialMT-74" transform="translate(333.544922 0)"/>
    <use xlink:href="#ArialMT-61" transform="translate(361.328125 0)"/>
    <use xlink:href="#ArialMT-73" transform="translate(416.943359 0)"/>
    <use xlink:href="#ArialMT-65" transform="translate(466.943359 0)"/>
    <use xlink:href="#ArialMT-74" transform="translate(522.558594 0)"/>
   </g>
  </g>
  <g id="legend_1">
   <g id="line2d_35">
    <path d="M 178.887366 36.243594
L 189.887366 36.243594
L 200.887366 36.243594
" style="fill: none; stroke: #ffffff; stroke-width: 1.5; stroke-linecap: round"/>
    <defs>
     <path id="m3bf2c67454" d="M 0 5
C 1.326016 5 2.597899 4.473168 3.535534 3.535534
C 4.473168 2.597899 5 1.326016 5 0
C 5 -1.326016 4.473168 -2.597899 3.535534 -3.535534
C 2.597899 -4.473168 1.326016 -5 0 -5
C -1.326016 -5 -2.597899 -4.473168 -3.535534 -3.535534
C -4.473168 -2.597899 -5 -1.326016 -5 0
C -5 1.326016 -4.473168 2.597899 -3.535534 3.535534
C -2.597899 4.473168 -1.326016 5 0 5
z
" style="stroke: #ffffff"/>
    </defs>
    <g>
     <use xlink:href="#m3bf2c67454" x="189.887366" y="36.243594" style="fill: #1f77b4; stroke: #ffffff"/>
    </g>
   </g>
   <g id="text_31">
    <!-- Real Time -->
    <g style="fill: #262626" transform="translate(209.687366 40.093594) scale(0.11 -0.11)">
     <defs>
      <path id="ArialMT-54" d="M 1659 0
L 1659 4041
L 150 4041
L 150 4581
L 3781 4581
L 3781 4041
L 2266 4041
L 2266 0
L 1659 0
z
" transform="scale(0.015625)"/>
     </defs>
     <use xlink:href="#ArialMT-52"/>
     <use xlink:href="#ArialMT-65" transform="translate(72.216797 0)"/>
     <use xlink:href="#ArialMT-61" transform="translate(127.832031 0)"/>
     <use xlink:href="#ArialMT-6c" transform="translate(183.447266 0)"/>
     <use xlink:href="#ArialMT-20" transform="translate(205.664062 0)"/>
     <use xlink:href="#ArialMT-54" transform="translate(231.697266 0)"/>
     <use xlink:href="#ArialMT-69" transform="translate(289.03125 0)"/>
     <use xlink:href="#ArialMT-6d" transform="translate(311.248047 0)"/>
     <use xlink:href="#ArialMT-65" transform="translate(394.548828 0)"/>
    </g>
   </g>
   <g id="line2d_36">
    <path d="M 281.202835 36.243594
L 292.202835 36.243594
L 303.202835 36.243594
" style="fill: none; stroke: #ffffff; stroke-width: 1.5; stroke-linecap: round"/>
    <defs>
     <path id="m60c6ef4ad7" d="M 0 5
C 1.326016 5 2.597899 4.473168 3.535534 3.535534
C 4.473168 2.597899 5 1.326016 5 0
C 5 -1.326016 4.473168 -2.597899 3.535534 -3.535534
C 2.597899 -4.473168 1.326016 -5 0 -5
C -1.326016 -5 -2.597899 -4.473168 -3.535534 -3.535534
C -4.473168 -2.597899 -5 -1.326016 -5 0
C -5 1.326016 -4.473168 2.597899 -3.535534 3.535534
C -2.597899 4.473168 -1.326016 5 0 5
z
" style="stroke: #ffffff"/>
    </defs>
    <g>
     <use xlink:href="#m60c6ef4ad7" x="292.202835" y="36.243594" style="fill: #d62728; stroke: #ffffff"/>
    </g>
   </g>
   <g id="text_32">
    <!-- Pseudotime -->
    <g style="fill: #262626" transform="translate(312.002835 40.093594) scale(0.11 -0.11)">
     <use xlink:href="#ArialMT-50"/>
     <use xlink:href="#ArialMT-73" transform="translate(66.699219 0)"/>
     <use xlink:href="#ArialMT-65" transform="translate(116.699219 0)"/>
     <use xlink:href="#ArialMT-75" transform="translate(172.314453 0)"/>
     <use xlink:href="#ArialMT-64" transform="translate(227.929688 0)"/>
     <use xlink:href="#ArialMT-6f" transform="translate(283.544922 0)"/>
     <use xlink:href="#ArialMT-74" transform="translate(339.160156 0)"/>
     <use xlink:href="#ArialMT-69" transform="translate(366.943359 0)"/>
     <use xlink:href="#ArialMT-6d" transform="translate(389.160156 0)"/>
     <use xlink:href="#ArialMT-65" transform="translate(472.460938 0)"/>
    </g>
   </g>
  </g>
 </g>
 <defs>
  <clipPath id="pbe88bef69b">
   <rect x="87.042248" y="75.17625" width="193.290454" height="443.80375"/>
  </clipPath>
  <clipPath id="p9a6ecbaf40">
   <rect x="289.997224" y="75.17625" width="193.290454" height="443.80375"/>
  </clipPath>
 </defs>
</svg>
